<svg xmlns="http://www.w3.org/2000/svg" width="900" height="760" viewBox="0 0 900 760">
<style>text{font-family:Arial,Helvetica,sans-serif;fill:#222}.title{font-size:22px;font-weight:700}.subtitle{font-size:12px;fill:#555}.axis{font-size:11px;fill:#555}.label{font-size:12px}.small{font-size:10px;fill:#555}.panel{fill:#fff;stroke:#ddd;stroke-width:1}</style>
<rect width="100%" height="100%" fill="#ffffff"/>
<text x="40.0" y="38.0" class="title" text-anchor="start">Most Recurrent Top-Effect Genes</text>
<text x="40.0" y="58.0" class="subtitle" text-anchor="start">Genes appearing most often among top absolute effects across all contrasts and datasets.</text>
<text x="170.0" y="86.0" class="axis" text-anchor="end">TMEM158</text>
<rect x="180.0" y="74.0" width="630.0" height="17.0" fill="#4C78A8" opacity="1.000"/>
<text x="816.0" y="86.0" class="small" text-anchor="start">826 hits, 5 datasets</text>
<text x="170.0" y="110.0" class="axis" text-anchor="end">AREG</text>
<rect x="180.0" y="98.0" width="378.3" height="17.0" fill="#4C78A8" opacity="1.000"/>
<text x="564.3" y="110.0" class="small" text-anchor="start">496 hits, 5 datasets</text>
<text x="170.0" y="134.0" class="axis" text-anchor="end">EGR1</text>
<rect x="180.0" y="122.0" width="342.5" height="17.0" fill="#4C78A8" opacity="1.000"/>
<text x="528.5" y="134.0" class="small" text-anchor="start">449 hits, 5 datasets</text>
<text x="170.0" y="158.0" class="axis" text-anchor="end">TUBA1A</text>
<rect x="180.0" y="146.0" width="304.3" height="17.0" fill="#4C78A8" opacity="1.000"/>
<text x="490.3" y="158.0" class="small" text-anchor="start">399 hits, 5 datasets</text>
<text x="170.0" y="182.0" class="axis" text-anchor="end">TAC3</text>
<rect x="180.0" y="170.0" width="261.6" height="17.0" fill="#4C78A8" opacity="1.000"/>
<text x="447.6" y="182.0" class="small" text-anchor="start">343 hits, 5 datasets</text>
<text x="170.0" y="206.0" class="axis" text-anchor="end">TSPAN32</text>
<rect x="180.0" y="194.0" width="254.7" height="17.0" fill="#4C78A8" opacity="1.000"/>
<text x="440.7" y="206.0" class="small" text-anchor="start">334 hits, 5 datasets</text>
<text x="170.0" y="230.0" class="axis" text-anchor="end">HSPA1A</text>
<rect x="180.0" y="218.0" width="157.1" height="17.0" fill="#4C78A8" opacity="1.000"/>
<text x="343.1" y="230.0" class="small" text-anchor="start">206 hits, 5 datasets</text>
<text x="170.0" y="254.0" class="axis" text-anchor="end">ARHGEF6</text>
<rect x="180.0" y="242.0" width="136.5" height="17.0" fill="#4C78A8" opacity="1.000"/>
<text x="322.5" y="254.0" class="small" text-anchor="start">179 hits, 5 datasets</text>
<text x="170.0" y="278.0" class="axis" text-anchor="end">CAB39L</text>
<rect x="180.0" y="266.0" width="119.0" height="17.0" fill="#4C78A8" opacity="1.000"/>
<text x="305.0" y="278.0" class="small" text-anchor="start">156 hits, 5 datasets</text>
<text x="170.0" y="302.0" class="axis" text-anchor="end">HIST1H3H</text>
<rect x="180.0" y="290.0" width="106.8" height="17.0" fill="#4C78A8" opacity="1.000"/>
<text x="292.8" y="302.0" class="small" text-anchor="start">140 hits, 5 datasets</text>
<text x="170.0" y="326.0" class="axis" text-anchor="end">PRSS57</text>
<rect x="180.0" y="314.0" width="105.3" height="17.0" fill="#4C78A8" opacity="1.000"/>
<text x="291.3" y="326.0" class="small" text-anchor="start">138 hits, 5 datasets</text>
<text x="170.0" y="350.0" class="axis" text-anchor="end">RNF208</text>
<rect x="180.0" y="338.0" width="72.5" height="17.0" fill="#4C78A8" opacity="1.000"/>
<text x="258.5" y="350.0" class="small" text-anchor="start">95 hits, 5 datasets</text>
<text x="170.0" y="374.0" class="axis" text-anchor="end">VGF</text>
<rect x="180.0" y="362.0" width="586.5" height="17.0" fill="#4C78A8" opacity="1.000"/>
<text x="772.5" y="374.0" class="small" text-anchor="start">769 hits, 4 datasets</text>
<text x="170.0" y="398.0" class="axis" text-anchor="end">CRYM</text>
<rect x="180.0" y="386.0" width="476.7" height="17.0" fill="#4C78A8" opacity="1.000"/>
<text x="662.7" y="398.0" class="small" text-anchor="start">625 hits, 4 datasets</text>
<text x="170.0" y="422.0" class="axis" text-anchor="end">ALAS2</text>
<rect x="180.0" y="410.0" width="457.6" height="17.0" fill="#4C78A8" opacity="1.000"/>
<text x="643.6" y="422.0" class="small" text-anchor="start">600 hits, 4 datasets</text>
<text x="170.0" y="446.0" class="axis" text-anchor="end">FCGR2A</text>
<rect x="180.0" y="434.0" width="456.9" height="17.0" fill="#4C78A8" opacity="1.000"/>
<text x="642.9" y="446.0" class="small" text-anchor="start">599 hits, 4 datasets</text>
<text x="170.0" y="470.0" class="axis" text-anchor="end">LST1</text>
<rect x="180.0" y="458.0" width="450.8" height="17.0" fill="#4C78A8" opacity="1.000"/>
<text x="636.8" y="470.0" class="small" text-anchor="start">591 hits, 4 datasets</text>
<text x="170.0" y="494.0" class="axis" text-anchor="end">BTG2</text>
<rect x="180.0" y="482.0" width="405.0" height="17.0" fill="#4C78A8" opacity="1.000"/>
<text x="591.0" y="494.0" class="small" text-anchor="start">531 hits, 4 datasets</text>
<text x="170.0" y="518.0" class="axis" text-anchor="end">PHGDH</text>
<rect x="180.0" y="506.0" width="384.4" height="17.0" fill="#4C78A8" opacity="1.000"/>
<text x="570.4" y="518.0" class="small" text-anchor="start">504 hits, 4 datasets</text>
<text x="170.0" y="542.0" class="axis" text-anchor="end">IER3</text>
<rect x="180.0" y="530.0" width="376.0" height="17.0" fill="#4C78A8" opacity="1.000"/>
<text x="562.0" y="542.0" class="small" text-anchor="start">493 hits, 4 datasets</text>
<text x="170.0" y="566.0" class="axis" text-anchor="end">LBH</text>
<rect x="180.0" y="554.0" width="347.8" height="17.0" fill="#4C78A8" opacity="1.000"/>
<text x="533.8" y="566.0" class="small" text-anchor="start">456 hits, 4 datasets</text>
<text x="170.0" y="590.0" class="axis" text-anchor="end">TNFSF10</text>
<rect x="180.0" y="578.0" width="337.9" height="17.0" fill="#4C78A8" opacity="1.000"/>
<text x="523.9" y="590.0" class="small" text-anchor="start">443 hits, 4 datasets</text>
<text x="170.0" y="614.0" class="axis" text-anchor="end">LCP2</text>
<rect x="180.0" y="602.0" width="334.8" height="17.0" fill="#4C78A8" opacity="1.000"/>
<text x="520.8" y="614.0" class="small" text-anchor="start">439 hits, 4 datasets</text>
<text x="170.0" y="638.0" class="axis" text-anchor="end">HBZ</text>
<rect x="180.0" y="626.0" width="308.1" height="17.0" fill="#4C78A8" opacity="1.000"/>
<text x="494.1" y="638.0" class="small" text-anchor="start">404 hits, 4 datasets</text>
<text x="170.0" y="662.0" class="axis" text-anchor="end">MT1G</text>
<rect x="180.0" y="650.0" width="284.5" height="17.0" fill="#4C78A8" opacity="1.000"/>
<text x="470.5" y="662.0" class="small" text-anchor="start">373 hits, 4 datasets</text>
</svg>
