<svg xmlns="http://www.w3.org/2000/svg" width="980" height="520" viewBox="0 0 980 520">
<style>text{font-family:Arial,Helvetica,sans-serif;fill:#222}.title{font-size:22px;font-weight:700}.subtitle{font-size:12px;fill:#555}.axis{font-size:11px;fill:#555}.label{font-size:12px}.small{font-size:10px;fill:#555}.panel{fill:#fff;stroke:#ddd;stroke-width:1}</style>
<rect width="100%" height="100%" fill="#ffffff"/>
<text x="40.0" y="38.0" class="title" text-anchor="start">Effect Magnitude by Dataset</text>
<text x="40.0" y="58.0" class="subtitle" text-anchor="start">Per-contrast absolute log1p(CPM) delta summaries from treated-minus-control pseudobulk effects.</text>
<line x1="90.0" y1="70.0" x2="90.0" y2="440.0" stroke="#999" stroke-width="1"/>
<line x1="90.0" y1="440.0" x2="940.0" y2="440.0" stroke="#999" stroke-width="1"/>
<line x1="85.0" y1="440.0" x2="940.0" y2="440.0" stroke="#e5e5e5" stroke-width="1"/>
<text x="80.0" y="444.0" class="axis" text-anchor="end">0.00</text>
<line x1="85.0" y1="366.0" x2="940.0" y2="366.0" stroke="#e5e5e5" stroke-width="1"/>
<text x="80.0" y="370.0" class="axis" text-anchor="end">1.11</text>
<line x1="85.0" y1="292.0" x2="940.0" y2="292.0" stroke="#e5e5e5" stroke-width="1"/>
<text x="80.0" y="296.0" class="axis" text-anchor="end">2.21</text>
<line x1="85.0" y1="218.0" x2="940.0" y2="218.0" stroke="#e5e5e5" stroke-width="1"/>
<text x="80.0" y="222.0" class="axis" text-anchor="end">3.32</text>
<line x1="85.0" y1="144.0" x2="940.0" y2="144.0" stroke="#e5e5e5" stroke-width="1"/>
<text x="80.0" y="148.0" class="axis" text-anchor="end">4.42</text>
<line x1="85.0" y1="70.0" x2="940.0" y2="70.0" stroke="#e5e5e5" stroke-width="1"/>
<text x="80.0" y="74.0" class="axis" text-anchor="end">5.53</text>
<rect x="90.0" y="313.8" width="48.2" height="126.2" fill="#4C78A8" opacity="0.950"/>
<rect x="146.7" y="258.4" width="48.2" height="181.6" fill="#4C78A8" opacity="0.550"/>
<rect x="203.3" y="425.5" width="48.2" height="14.5" fill="#4C78A8" opacity="0.300"/>
<text x="175.0" y="462.0" class="axis" text-anchor="middle">adamson</text>
<text x="175.0" y="478.0" class="small" text-anchor="middle">n=96</text>
<rect x="260.0" y="366.2" width="48.2" height="73.8" fill="#F58518" opacity="0.950"/>
<rect x="316.7" y="311.3" width="48.2" height="128.7" fill="#F58518" opacity="0.550"/>
<rect x="373.3" y="428.3" width="48.2" height="11.7" fill="#F58518" opacity="0.300"/>
<text x="345.0" y="462.0" class="axis" text-anchor="middle">dixit</text>
<text x="345.0" y="478.0" class="small" text-anchor="middle">n=26</text>
<rect x="430.0" y="235.5" width="48.2" height="204.5" fill="#54A24B" opacity="0.950"/>
<rect x="486.7" y="148.3" width="48.2" height="291.7" fill="#54A24B" opacity="0.550"/>
<rect x="543.3" y="417.7" width="48.2" height="22.3" fill="#54A24B" opacity="0.300"/>
<text x="515.0" y="462.0" class="axis" text-anchor="middle">norman</text>
<text x="515.0" y="478.0" class="small" text-anchor="middle">n=236</text>
<rect x="600.0" y="311.2" width="48.2" height="128.8" fill="#B279A2" opacity="0.950"/>
<rect x="656.7" y="267.2" width="48.2" height="172.8" fill="#B279A2" opacity="0.550"/>
<rect x="713.3" y="415.0" width="48.2" height="25.0" fill="#B279A2" opacity="0.300"/>
<text x="685.0" y="462.0" class="axis" text-anchor="middle">replogle</text>
<text x="685.0" y="478.0" class="small" text-anchor="middle">n=1832</text>
<rect x="770.0" y="209.5" width="48.2" height="230.5" fill="#E45756" opacity="0.950"/>
<rect x="826.7" y="118.3" width="48.2" height="321.7" fill="#E45756" opacity="0.550"/>
<rect x="883.3" y="384.0" width="48.2" height="56.0" fill="#E45756" opacity="0.300"/>
<text x="855.0" y="462.0" class="axis" text-anchor="middle">sciplex3</text>
<text x="855.0" y="478.0" class="small" text-anchor="middle">n=2423</text>
<rect x="720.0" y="78.0" width="16.0" height="12.0" fill="#555" opacity="0.950"/>
<text x="744.0" y="90.0" class="small" text-anchor="start">median max</text>
<rect x="720.0" y="100.0" width="16.0" height="12.0" fill="#555" opacity="0.550"/>
<text x="744.0" y="112.0" class="small" text-anchor="start">p90 max</text>
<rect x="720.0" y="122.0" width="16.0" height="12.0" fill="#555" opacity="0.300"/>
<text x="744.0" y="134.0" class="small" text-anchor="start">median p95</text>
</svg>
