<svg xmlns="http://www.w3.org/2000/svg" width="900" height="760" viewBox="0 0 900 760">
<style>text{font-family:Arial,Helvetica,sans-serif;fill:#222}.title{font-size:22px;font-weight:700}.subtitle{font-size:12px;fill:#555}.axis{font-size:11px;fill:#555}.label{font-size:12px}.small{font-size:10px;fill:#555}.panel{fill:#fff;stroke:#ddd;stroke-width:1}</style>
<rect width="100%" height="100%" fill="#ffffff"/>
<text x="40.0" y="38.0" class="title" text-anchor="start">Most Recurrent Top-Effect Genes</text>
<text x="40.0" y="58.0" class="subtitle" text-anchor="start">Genes appearing most often among top absolute effects across all contrasts and datasets.</text>
<text x="170.0" y="86.0" class="axis" text-anchor="end">TMEM158</text>
<rect x="180.0" y="74.0" width="630.0" height="17.0" fill="#4C78A8" opacity="1.000"/>
<text x="816.0" y="86.0" class="small" text-anchor="start">805 hits, 5 datasets</text>
<text x="170.0" y="110.0" class="axis" text-anchor="end">AREG</text>
<rect x="180.0" y="98.0" width="382.7" height="17.0" fill="#4C78A8" opacity="1.000"/>
<text x="568.7" y="110.0" class="small" text-anchor="start">489 hits, 5 datasets</text>
<text x="170.0" y="134.0" class="axis" text-anchor="end">IER3</text>
<rect x="180.0" y="122.0" width="370.2" height="17.0" fill="#4C78A8" opacity="1.000"/>
<text x="556.2" y="134.0" class="small" text-anchor="start">473 hits, 5 datasets</text>
<text x="170.0" y="158.0" class="axis" text-anchor="end">EGR1</text>
<rect x="180.0" y="146.0" width="348.3" height="17.0" fill="#4C78A8" opacity="1.000"/>
<text x="534.3" y="158.0" class="small" text-anchor="start">445 hits, 5 datasets</text>
<text x="170.0" y="182.0" class="axis" text-anchor="end">TUBA1A</text>
<rect x="180.0" y="170.0" width="306.0" height="17.0" fill="#4C78A8" opacity="1.000"/>
<text x="492.0" y="182.0" class="small" text-anchor="start">391 hits, 5 datasets</text>
<text x="170.0" y="206.0" class="axis" text-anchor="end">TAC3</text>
<rect x="180.0" y="194.0" width="295.0" height="17.0" fill="#4C78A8" opacity="1.000"/>
<text x="481.0" y="206.0" class="small" text-anchor="start">377 hits, 5 datasets</text>
<text x="170.0" y="230.0" class="axis" text-anchor="end">TSPAN32</text>
<rect x="180.0" y="218.0" width="253.6" height="17.0" fill="#4C78A8" opacity="1.000"/>
<text x="439.6" y="230.0" class="small" text-anchor="start">324 hits, 5 datasets</text>
<text x="170.0" y="254.0" class="axis" text-anchor="end">NTRK1</text>
<rect x="180.0" y="242.0" width="249.7" height="17.0" fill="#4C78A8" opacity="1.000"/>
<text x="435.7" y="254.0" class="small" text-anchor="start">319 hits, 5 datasets</text>
<text x="170.0" y="278.0" class="axis" text-anchor="end">CAMK2N1</text>
<rect x="180.0" y="266.0" width="217.6" height="17.0" fill="#4C78A8" opacity="1.000"/>
<text x="403.6" y="278.0" class="small" text-anchor="start">278 hits, 5 datasets</text>
<text x="170.0" y="302.0" class="axis" text-anchor="end">HOMER3</text>
<rect x="180.0" y="290.0" width="208.2" height="17.0" fill="#4C78A8" opacity="1.000"/>
<text x="394.2" y="302.0" class="small" text-anchor="start">266 hits, 5 datasets</text>
<text x="170.0" y="326.0" class="axis" text-anchor="end">TRANK1</text>
<rect x="180.0" y="314.0" width="202.7" height="17.0" fill="#4C78A8" opacity="1.000"/>
<text x="388.7" y="326.0" class="small" text-anchor="start">259 hits, 5 datasets</text>
<text x="170.0" y="350.0" class="axis" text-anchor="end">ZNF467</text>
<rect x="180.0" y="338.0" width="197.2" height="17.0" fill="#4C78A8" opacity="1.000"/>
<text x="383.2" y="350.0" class="small" text-anchor="start">252 hits, 5 datasets</text>
<text x="170.0" y="374.0" class="axis" text-anchor="end">HSPA1A</text>
<rect x="180.0" y="362.0" width="165.1" height="17.0" fill="#4C78A8" opacity="1.000"/>
<text x="351.1" y="374.0" class="small" text-anchor="start">211 hits, 5 datasets</text>
<text x="170.0" y="398.0" class="axis" text-anchor="end">S100A4</text>
<rect x="180.0" y="386.0" width="156.5" height="17.0" fill="#4C78A8" opacity="1.000"/>
<text x="342.5" y="398.0" class="small" text-anchor="start">200 hits, 5 datasets</text>
<text x="170.0" y="422.0" class="axis" text-anchor="end">ARHGEF6</text>
<rect x="180.0" y="410.0" width="155.7" height="17.0" fill="#4C78A8" opacity="1.000"/>
<text x="341.7" y="422.0" class="small" text-anchor="start">199 hits, 5 datasets</text>
<text x="170.0" y="446.0" class="axis" text-anchor="end">RHOB</text>
<rect x="180.0" y="434.0" width="148.7" height="17.0" fill="#4C78A8" opacity="1.000"/>
<text x="334.7" y="446.0" class="small" text-anchor="start">190 hits, 5 datasets</text>
<text x="170.0" y="470.0" class="axis" text-anchor="end">CAB39L</text>
<rect x="180.0" y="458.0" width="131.5" height="17.0" fill="#4C78A8" opacity="1.000"/>
<text x="317.5" y="470.0" class="small" text-anchor="start">168 hits, 5 datasets</text>
<text x="170.0" y="494.0" class="axis" text-anchor="end">CD226</text>
<rect x="180.0" y="482.0" width="119.7" height="17.0" fill="#4C78A8" opacity="1.000"/>
<text x="305.7" y="494.0" class="small" text-anchor="start">153 hits, 5 datasets</text>
<text x="170.0" y="518.0" class="axis" text-anchor="end">HIST1H3H</text>
<rect x="180.0" y="506.0" width="112.7" height="17.0" fill="#4C78A8" opacity="1.000"/>
<text x="298.7" y="518.0" class="small" text-anchor="start">144 hits, 5 datasets</text>
<text x="170.0" y="542.0" class="axis" text-anchor="end">FERMT2</text>
<rect x="180.0" y="530.0" width="110.3" height="17.0" fill="#4C78A8" opacity="1.000"/>
<text x="296.3" y="542.0" class="small" text-anchor="start">141 hits, 5 datasets</text>
<text x="170.0" y="566.0" class="axis" text-anchor="end">NES</text>
<rect x="180.0" y="554.0" width="98.6" height="17.0" fill="#4C78A8" opacity="1.000"/>
<text x="284.6" y="566.0" class="small" text-anchor="start">126 hits, 5 datasets</text>
<text x="170.0" y="590.0" class="axis" text-anchor="end">ELK3</text>
<rect x="180.0" y="578.0" width="73.6" height="17.0" fill="#4C78A8" opacity="1.000"/>
<text x="259.6" y="590.0" class="small" text-anchor="start">94 hits, 5 datasets</text>
<text x="170.0" y="614.0" class="axis" text-anchor="end">RNF208</text>
<rect x="180.0" y="602.0" width="73.6" height="17.0" fill="#4C78A8" opacity="1.000"/>
<text x="259.6" y="614.0" class="small" text-anchor="start">94 hits, 5 datasets</text>
<text x="170.0" y="638.0" class="axis" text-anchor="end">GDAP1</text>
<rect x="180.0" y="626.0" width="71.2" height="17.0" fill="#4C78A8" opacity="1.000"/>
<text x="257.2" y="638.0" class="small" text-anchor="start">91 hits, 5 datasets</text>
<text x="170.0" y="662.0" class="axis" text-anchor="end">PLCG2</text>
<rect x="180.0" y="650.0" width="69.7" height="17.0" fill="#4C78A8" opacity="1.000"/>
<text x="255.7" y="662.0" class="small" text-anchor="start">89 hits, 5 datasets</text>
</svg>
